<svg width="400" height="400"><g><path d="M200,200 L199.99999999999997,50 A150,150, 0 0,1 306.0660171779821,93.93398282201785 Z" fill="#219C90" stroke="white"><title>One: 2 
 12.5%</title></path><path d="M200,200 L306.0660171779821,93.93398282201785 A150,150, 0 0,1 306.06601717798213,306.0660171779821 Z" fill="#E9B824" stroke="white"><title>Two: 4 
 25%</title></path><path d="M200,200 L306.06601717798213,306.0660171779821 A150,150, 0 0,1 50,200.00000000000006 Z" fill="#AE445A" stroke="white"><title>Three: 6 
 37.5%</title></path><path d="M200,200 L50,200.00000000000006 A150,150, 0 0,1 199.99999999999994,50 Z" fill="#D83F31" stroke="white"><title>Four: 4 
 25%</title></path><path d="M200, 200 m-150, 0 a150,150 0 1,0 300,0 a150,150 0 1,0 -300,0" fill="none" stroke="black"></path></g></svg>